<svg width="16" height="16" viewBox="0 0 16 16" fill="none" xmlns="http://www.w3.org/2000/svg">
<path d="M10.458 11.9087C10.2743 11.7452 10.0863 11.586 9.91143 11.4142C8.67623 10.2158 7.4454 9.01742 6.21239 7.81693C5.81231 7.42724 5.41005 7.03755 5.01217 6.64786C4.96188 6.59967 4.93346 6.59967 4.88099 6.64996C4.35194 7.16326 3.8185 7.67237 3.29163 8.18567C3.22823 8.24852 3.19544 8.24642 3.13204 8.18357C2.5199 7.59275 1.90558 7.00403 1.28908 6.4174C1.22568 6.35874 1.21912 6.32521 1.28689 6.26236C2.25537 5.38242 3.22167 4.50038 4.18797 3.61834C4.42845 3.40045 4.66893 3.18256 4.90723 2.96257C4.94877 2.92486 4.98812 2.9081 5.05152 2.91439C6.1315 3.03171 7.21148 3.14694 8.29146 3.26008C8.31332 3.26217 8.333 3.26846 8.35923 3.27265C8.3483 3.31665 8.31332 3.33969 8.28709 3.36483C7.63341 3.99546 6.97974 4.62399 6.3217 5.25252C6.26267 5.30699 6.26486 5.33842 6.32388 5.39289C7.10654 6.12618 7.88701 6.85947 8.6653 7.59694C9.79993 8.67173 10.9324 9.75071 12.0648 10.8297C12.1173 10.88 12.1435 10.8904 12.1982 10.8297C12.7491 10.2074 13.0355 9.48463 13.1055 8.67592C13.1907 7.69751 12.9765 6.76309 12.6245 5.85382C12.1173 4.54228 11.3652 3.36274 10.5126 2.23557C9.96608 1.51905 9.378 0.83395 8.76586 0.165613C8.71558 0.11114 8.66311 0.0608574 8.60408 9.93903e-05C8.67841 -0.00199571 8.72432 0.0294308 8.77461 0.0566672C9.73653 0.607679 10.6569 1.21945 11.5117 1.91712C12.4715 2.70069 13.3306 3.57225 14.0127 4.59256C14.6314 5.5186 15.073 6.51168 15.2239 7.61161C15.4665 9.37778 14.9812 10.9365 13.7613 12.2816C13.7001 12.3486 13.6957 12.3822 13.7657 12.445C14.3931 13.0274 15.014 13.612 15.6371 14.1986C15.8054 14.3578 15.9344 14.5422 15.9825 14.7685C16.0699 15.1896 15.8229 15.6233 15.3966 15.8077C14.9309 16.0088 14.5199 15.9103 14.1286 15.5227C13.6957 15.0932 13.2585 14.6721 12.8213 14.2468C12.6092 14.0415 12.3949 13.8362 12.1894 13.6266C12.1304 13.5659 12.0867 13.5554 12.0058 13.5973C11.3543 13.9304 10.6613 14.1399 9.92892 14.2258C8.98011 14.3369 8.05753 14.2342 7.1612 13.92C6.31295 13.6225 5.56746 13.1657 4.90067 12.5854C4.86132 12.5498 4.81978 12.5162 4.77824 12.4806C4.76731 12.4722 4.75419 12.466 4.73233 12.4513C4.61646 12.9017 4.24044 13.0631 3.84255 13.1972C3.75073 13.2286 3.68952 13.2768 3.63486 13.3522C3.33317 13.7754 3.0752 14.2258 2.76694 14.6449C2.40185 15.1393 1.96242 15.55 1.38308 15.8097C1.18414 15.8977 0.98301 15.881 0.784066 15.8412C0.217841 15.728 -0.0641776 15.3006 0.0123392 14.7496C0.0582493 14.4207 0.24189 14.1756 0.449578 13.9388C0.875886 13.4528 1.40495 13.0861 1.95368 12.7383C2.22914 12.5644 2.50679 12.3926 2.78662 12.2208C2.84346 12.1873 2.87188 12.1433 2.88937 12.0826C2.95714 11.8689 3.05771 11.6761 3.24791 11.5336C3.4075 11.4142 3.59114 11.3702 3.7879 11.3723C3.83162 11.3723 3.87316 11.3807 3.89283 11.3241C3.99996 11.0455 4.26011 11.0078 4.52246 11.1293C4.54213 11.1377 4.55962 11.1502 4.5793 11.1607C4.73452 11.255 4.73452 11.255 4.86132 11.1188C4.94658 11.0287 5.03184 10.9386 5.11492 10.8444C5.15427 10.8004 5.17832 10.7962 5.22641 10.836C5.43192 10.9973 5.61774 11.1796 5.83417 11.3283C6.54469 11.8123 7.33828 12.0805 8.19964 12.1706C8.93639 12.2481 9.65783 12.1852 10.364 11.9631C10.3858 11.9589 10.4143 11.9589 10.458 11.9087Z" fill="#FBD016"/>
</svg>
