<svg class="img-fit" width="651" height="492" viewBox="0 0 651 492" fill="none" xmlns="http://www.w3.org/2000/svg">
<path d="M43.5638 436.275V374.96H54.8789V436.275C54.8789 441.984 53.7199 446.802 51.4019 450.727C49.0838 454.652 45.8818 457.645 41.7958 459.707C37.7491 461.729 33.0933 462.74 27.8287 462.74C22.564 462.74 17.8886 461.828 13.8026 460.004C9.71659 458.18 6.51456 455.405 4.19653 451.678C1.8785 447.951 0.719482 443.253 0.719482 437.583H12.0936C12.0936 441.231 12.7615 444.224 14.0973 446.564C15.4331 448.903 17.2797 450.628 19.637 451.738C22.0336 452.848 24.7641 453.403 27.8287 453.403C30.8146 453.403 33.4862 452.769 35.8436 451.5C38.2402 450.191 40.126 448.269 41.5011 445.731C42.8762 443.154 43.5638 440.002 43.5638 436.275Z" />
<path d="M89.5253 374.96V461.551H78.1513V374.96H89.5253Z"/>
<path d="M115.685 374.96L137.962 418.434L160.298 374.96H173.204L143.62 429.198V461.551H132.246V429.198L102.661 374.96H115.685Z" />
<path d="M230.834 374.96H242.149V433.539C242.149 440.042 240.715 445.454 237.847 449.775C234.979 454.097 231.168 457.348 226.414 459.528C221.7 461.669 216.572 462.74 211.033 462.74C205.218 462.74 199.953 461.669 195.239 459.528C190.563 457.348 186.851 454.097 184.1 449.775C181.389 445.454 180.034 440.042 180.034 433.539V374.96H191.29V433.539C191.29 438.059 192.115 441.786 193.765 444.72C195.416 447.654 197.714 449.835 200.661 451.262C203.646 452.689 207.104 453.403 211.033 453.403C215.001 453.403 218.458 452.689 221.405 451.262C224.391 449.835 226.709 447.654 228.359 444.72C230.009 441.786 230.834 438.059 230.834 433.539V374.96Z" />
<path d="M329.187 374.96V461.551H317.754L274.556 394.764V461.551H263.182V374.96H274.556L317.931 441.925V374.96H329.187Z" />
<path d="M385.344 382.632L356.939 461.551H345.329L378.036 374.96H385.521L385.344 382.632ZM409.153 461.551L380.689 382.632L380.512 374.96H387.996L420.822 461.551H409.153ZM407.68 429.495V438.892H359.473V429.495H407.68Z" />
<path d="M480.803 374.96V461.551H469.429V374.96H480.803Z"/>
<path d="M516.039 374.96V461.551H504.665V374.96H516.039ZM567.841 374.96L532.187 415.341L512.149 436.335L510.264 424.083L525.35 407.312L554.169 374.96H567.841ZM556.88 461.551L525.115 419.326L531.892 410.226L570.434 461.551H556.88Z" />
<path d="M615.394 382.632L586.988 461.551H575.378L608.086 374.96H615.571L615.394 382.632ZM639.203 461.551L610.738 382.632L610.561 374.96H618.046L650.872 461.551H639.203ZM637.729 429.495V438.892H589.522V429.495H637.729Z" />
<path fill-rule="evenodd" clip-rule="evenodd" d="M217.646 223.965L186.472 233.476C194.02 249.543 196.974 258.396 203.536 283.646L215.35 280.367C218.032 289.604 220.007 299.031 221.257 308.567H233.398C252.76 308.567 266.871 306.928 274.747 303.321C287.873 297.74 296.405 283.974 300.335 262.332C303.837 241.393 306.03 220.256 306.899 199.045C307.227 192.815 307.555 188.223 308.211 182.648C300.47 183.417 292.691 183.746 284.912 183.631H93.2736V171.171H283.606C294.013 171.029 304.421 171.467 314.779 172.484V130.51C304.646 131.604 294.452 132.043 284.262 131.823H93.2736V120.018H236.348C247.834 120.018 258.663 120.345 266.212 121.001C265.175 110.979 264.736 100.905 264.898 90.8317V56.4023C264.76 46.4381 265.198 36.4743 266.212 26.5608C256.294 27.6151 246.32 28.0535 236.348 27.8734H169.078C172.682 21.971 177.938 12.1325 182.533 2.62349L126.091 0C123.752 9.78529 119.993 19.1759 114.933 27.8734H72.5999C62.6284 28.0535 52.6553 27.6151 42.7381 26.5608C43.722 36.727 44.3779 47.8764 44.3779 60.0089V186.592C44.5734 198.957 44.1356 211.325 43.0661 223.646L35.8475 220.695C27.6432 248.569 20.4246 262.997 5 282.996L47.0033 312.508C61.1143 289.226 68.987 270.534 78.1769 238.071L45.3617 224.628C55.5355 223.97 59.8007 223.97 68.3329 223.97L217.646 223.965ZM256.368 223.965C255.981 235.204 254.664 246.391 252.43 257.413C250.789 263.316 248.826 264.954 243.24 264.954C239.141 252.407 233.982 240.23 227.818 228.557C227.16 227.573 226.504 225.933 225.52 223.965H256.368ZM93.2736 68.5348H215.676V82.963H93.2736V68.5348ZM80.8042 237.41C82.7737 255.776 84.0855 279.382 84.0855 296.434C84.0855 298.73 84.0855 302.336 83.7576 306.928L129.372 302.994C127.402 271.514 125.433 254.134 121.496 233.804L80.8042 237.41ZM134.293 236.099C140.004 256.475 143.849 277.328 145.779 298.4L190.081 289.874C184.83 264.625 181.221 250.854 173.673 229.538L134.293 236.099ZM452.388 37.7102C452.283 29.0561 452.721 20.404 453.7 11.8048C444.659 12.8256 435.561 13.264 426.464 13.1174H370.341C360.698 13.202 351.058 12.7638 341.463 11.8048C342.446 22.9542 342.774 30.4969 342.774 41.3167V198.06C342.891 208.897 342.453 219.732 341.463 230.525C348.223 229.861 355.019 229.642 361.808 229.867C351.307 255.773 344.416 267.578 328.663 286.27C345.4 295.123 354.26 301.026 367.387 312.503C383.794 289.549 390.686 276.761 399.874 251.511C409.064 276.103 414.969 288.565 428.095 309.224C443.519 296.762 451.394 291.187 465.177 283.318C452.383 264.952 447.129 255.445 436.955 229.867C446.473 229.867 447.456 230.195 453.035 230.525C452.707 224.943 452.379 217.407 452.379 202.975L452.388 37.7102ZM399.555 245.281L366.083 229.867H430.401L399.555 245.281ZM409.072 56.3968V74.7631H388.059V56.3968H409.072ZM388.07 111.495H409.072V130.513H388.059V111.492L388.07 111.495ZM388.07 168.215H409.072V186.907H388.059V168.22L388.07 168.215ZM516.707 186.581C522.302 186.532 527.893 186.861 533.443 187.566V144.283C527.898 145.042 522.303 145.37 516.707 145.266V132.806C516.707 120.021 517.035 115.098 517.691 106.573H473.053C473.709 116.082 474.037 120.345 474.037 133.789V145.266C469.203 145.099 464.383 144.661 459.598 143.955V187.568C464.391 186.996 469.21 186.667 474.037 186.583V227.901C474.037 242.329 473.709 246.919 473.053 255.773H502.915C495.717 260.741 488.268 265.338 480.6 269.546C493.218 280.865 504.057 294.02 512.754 308.567C534.411 293.155 546.225 282.663 563.289 263.643C578.065 295.451 592.823 310.207 609.887 310.207C631.545 310.207 642.703 285.942 645 233.804C633.738 228.505 623.338 221.54 614.152 213.145C612.841 238.393 610.871 252.166 608.566 252.166L607.909 251.511C607.542 250.391 607.104 249.296 606.597 248.232C601.954 239.981 598.108 231.307 595.111 222.326C608.547 201.713 619.975 179.862 629.24 157.071C635.803 141.659 637.115 139.036 640.068 132.806L597.409 111.82C594.321 127.188 589.476 142.152 582.97 156.415C581.656 141.659 581.656 138.049 581 114.771C581 111.17 581 105.588 580.672 98.3744H603.971C617.097 98.3744 629.24 99.0298 641.71 100.015V51.8107C634.216 52.9208 626.638 53.3601 619.066 53.1234L637.772 42.6294C630.596 28.8568 622.136 15.7913 612.504 3.60663L580.687 21.3156C588.131 31.4133 594.822 42.0446 600.705 53.1234H579.705C579.375 38.6951 579.047 30.8246 579.047 29.512C578.856 21.1447 579.627 12.7831 581.345 4.59156H530.153C531.793 14.1006 532.121 16.7241 532.449 53.1234H497.671C477.653 53.1234 467.809 52.7938 459.277 51.483V99.6871C470.402 98.6319 481.577 98.1936 492.75 98.3744H533.442C536.067 150.185 540.004 184.624 547.223 215.111C538.254 226.205 528.135 236.318 517.033 245.281C516.705 237.738 516.705 234.459 516.705 228.229L516.707 186.581Z"/>
</svg>
